<svg xmlns="http://www.w3.org/2000/svg" xmlns:xlink="http://www.w3.org/1999/xlink" width="440" zoomAndPan="magnify" viewBox="0 0 330 83.25" height="111" preserveAspectRatio="xMidYMid meet" xmlns:v="https://vecta.io/nano"><defs><clipPath id="A"><path d="M1.633 1h87.711v80H1.633zm0 0" clip-rule="nonzero"/></clipPath><clipPath id="B"><path d="M44.859 2.117c4.781-1.742 10.492-.504 14.09 3.102l26.063 25.973c2.48 2.457 4.016 5.82 4.191 9.309.141 4.008-1.711 7.945-4.645 10.648L58.703 76.91c-4.312 4.148-11.73 5.141-16.566 1.395-.02-3.137.695-6.312 2.18-9.082 1.449-2.719 4.172-4.828 7.297-5.125 2.43-.332 4.734.766 7.141.699 1.695.066 3.633-.367 4.609-1.867.75-1.465.246-3.172.699-4.707.609-.68 1.398-1.184 2.113-1.742-.191-.59-.437-1.168-.629-1.742 1.676-1.117.836-3.086.926-4.723 1.098-.941 2.898-1.062 3.629-2.406-.031-1.777-1.551-3.016-2.406-4.445-1.293-2.02-3.039-4.375-1.973-6.867 1.344-4.164.891-8.82-1.172-12.672-2.023-4.164-5.832-7.25-9.984-9.133-4.297-1.848-8.957-2.734-13.617-2.961-2.793-.141-5.535.539-8.258 1.027 1.762-2.023 3.734-3.836 5.621-5.77 1.867-1.969 3.926-3.852 6.547-4.672zM7.969 18.242c-2.285 2.039-2.043 5.906.281 7.824 3.613 3.504 7.051 7.18 10.754 10.598.035-2.789.176-5.594.438-8.367 1.324-6.344 5.602-11.992 11.434-14.902-1.605-1.691-3.23-3.383-4.906-5-1.098-1.066-2.512-2.043-4.121-1.902-1.832-.051-3.332 1.152-4.539 2.387l-9.34 9.363zM33.16 22.93c-.871.906-2.094 1.898-1.711 3.328.875 1.621 2.445 2.738 3.684 4.078.84.77 1.836 2.023 3.125 1.449 1.574-.977 2.742-2.441 4.086-3.695.77-.84 1.902-1.797 1.449-3.07-1.133-1.707-2.738-3.031-4.172-4.477-.77-.664-1.867-1.711-2.898-.891-1.359.922-2.41 2.18-3.562 3.277zM3.586 38.301c-.625.699-1.516 1.324-1.621 2.336-.332 2.109 1.953 3.191 3.105 4.602 1.313 1.082 2.516 3.348 4.523 2.633 1.816-1.098 3.105-2.84 4.645-4.27.801-.891 2.094-2.094 1.359-3.398-1.379-1.883-3.176-3.434-4.836-5.074-.836-.906-2.285-1.41-3.332-.539-1.414 1.082-2.551 2.492-3.844 3.711zm23.309-.73l-9.375 9.324c-1.082 1.047-2.184 2.301-2.199 3.906-.262 1.742.453 3.484 1.727 4.688l7.789 7.773c1.098 1.098 2.145 2.301 3.422 3.223 2.059 1.52 5.148 1.188 6.91-.625l10.477-10.426c2.129-2.004 2.32-5.715.156-7.773L35.57 37.43c-1.414-1.445-3.473-2.562-5.535-1.934-1.203.332-2.234 1.184-3.141 2.074zm0 0" clip-rule="nonzero"/></clipPath><linearGradient x1="6.175" y1="-3.803" x2="87.204" gradientUnits="userSpaceOnUse" y2="84.017" id="C"><stop stop-color="rgb(0%, 8.999634%, 62.69989%)" offset="0"/><stop stop-color="rgb(0%, 8.999634%, 62.69989%)" offset=".25"/><stop stop-color="rgb(0%, 9.028625%, 62.705994%)" offset=".313"/><stop stop-color="rgb(0%, 9.368896%, 62.783813%)" offset=".316"/><stop stop-color="rgb(0%, 9.680176%, 62.854004%)" offset=".32"/><stop stop-color="rgb(0%, 9.989929%, 62.924194%)" offset=".324"/><stop stop-color="rgb(0%, 10.299683%, 62.995911%)" offset=".328"/><stop stop-color="rgb(0%, 10.609436%, 63.066101%)" offset=".332"/><stop stop-color="rgb(0%, 10.920715%, 63.137817%)" offset=".336"/><stop stop-color="rgb(0%, 11.230469%, 63.208008%)" offset=".34"/><stop stop-color="rgb(0%, 11.540222%, 63.278198%)" offset=".344"/><stop stop-color="rgb(0%, 11.849976%, 63.348389%)" offset=".348"/><stop stop-color="rgb(0%, 12.161255%, 63.420105%)" offset=".352"/><stop stop-color="rgb(0%, 12.471008%, 63.490295%)" offset=".355"/><stop stop-color="rgb(0%, 12.780762%, 63.562012%)" offset=".359"/><stop stop-color="rgb(0%, 13.090515%, 63.632202%)" offset=".363"/><stop stop-color="rgb(0%, 13.400269%, 63.702393%)" offset=".367"/><stop stop-color="rgb(0%, 13.710022%, 63.772583%)" offset=".371"/><stop stop-color="rgb(0%, 14.021301%, 63.844299%)" offset=".375"/><stop stop-color="rgb(0%, 14.331055%, 63.91449%)" offset=".379"/><stop stop-color="rgb(0%, 14.640808%, 63.986206%)" offset=".383"/><stop stop-color="rgb(0%, 14.950562%, 64.056396%)" offset=".387"/><stop stop-color="rgb(0%, 15.261841%, 64.128113%)" offset=".391"/><stop stop-color="rgb(0%, 15.571594%, 64.198303%)" offset=".395"/><stop stop-color="rgb(0%, 15.881348%, 64.268494%)" offset=".398"/><stop stop-color="rgb(0%, 16.191101%, 64.338684%)" offset=".402"/><stop stop-color="rgb(0%, 16.50238%, 64.4104%)" offset=".406"/><stop stop-color="rgb(0%, 16.812134%, 64.480591%)" offset=".41"/><stop stop-color="rgb(0%, 17.121887%, 64.552307%)" offset=".414"/><stop stop-color="rgb(0%, 17.431641%, 64.622498%)" offset=".418"/><stop stop-color="rgb(0%, 17.74292%, 64.692688%)" offset=".422"/><stop stop-color="rgb(0%, 18.052673%, 64.762878%)" offset=".426"/><stop stop-color="rgb(0%, 18.362427%, 64.834595%)" offset=".43"/><stop stop-color="rgb(0%, 18.67218%, 64.904785%)" offset=".434"/><stop stop-color="rgb(0%, 18.983459%, 64.976501%)" offset=".438"/><stop stop-color="rgb(0%, 19.293213%, 65.046692%)" offset=".441"/><stop stop-color="rgb(0%, 19.602966%, 65.118408%)" offset=".445"/><stop stop-color="rgb(0%, 19.91272%, 65.188599%)" offset=".449"/><stop stop-color="rgb(0%, 20.223999%, 65.258789%)" offset=".453"/><stop stop-color="rgb(0%, 20.533752%, 65.328979%)" offset=".457"/><stop stop-color="rgb(0%, 20.843506%, 65.400696%)" offset=".461"/><stop stop-color="rgb(0%, 21.153259%, 65.470886%)" offset=".465"/><stop stop-color="rgb(0%, 21.463013%, 65.542603%)" offset=".469"/><stop stop-color="rgb(0%, 21.772766%, 65.612793%)" offset=".473"/><stop stop-color="rgb(0%, 22.084045%, 65.682983%)" offset=".477"/><stop stop-color="rgb(0%, 22.393799%, 65.753174%)" offset=".48"/><stop stop-color="rgb(0%, 22.703552%, 65.82489%)" offset=".484"/><stop stop-color="rgb(0%, 23.013306%, 65.895081%)" offset=".488"/><stop stop-color="rgb(0%, 23.324585%, 65.966797%)" offset=".492"/><stop stop-color="rgb(0%, 23.634338%, 66.036987%)" offset=".496"/><stop stop-color="rgb(0%, 23.944092%, 66.107178%)" offset=".5"/><stop stop-color="rgb(0%, 24.253845%, 66.177368%)" offset=".504"/><stop stop-color="rgb(0%, 24.565125%, 66.249084%)" offset=".508"/><stop stop-color="rgb(0%, 24.874878%, 66.319275%)" offset=".512"/><stop stop-color="rgb(0%, 25.184631%, 66.390991%)" offset=".516"/><stop stop-color="rgb(0%, 25.494385%, 66.461182%)" offset=".52"/><stop stop-color="rgb(0%, 25.805664%, 66.532898%)" offset=".523"/><stop stop-color="rgb(0%, 26.115417%, 66.603088%)" offset=".527"/><stop stop-color="rgb(0%, 26.425171%, 66.673279%)" offset=".531"/><stop stop-color="rgb(0%, 26.734924%, 66.743469%)" offset=".535"/><stop stop-color="rgb(0%, 27.046204%, 66.815186%)" offset=".539"/><stop stop-color="rgb(0%, 27.355957%, 66.885376%)" offset=".543"/><stop stop-color="rgb(0%, 27.66571%, 66.957092%)" offset=".547"/><stop stop-color="rgb(0%, 27.975464%, 67.027283%)" offset=".551"/><stop stop-color="rgb(0%, 28.286743%, 67.097473%)" offset=".555"/><stop stop-color="rgb(0%, 28.596497%, 67.167664%)" offset=".559"/><stop stop-color="rgb(0%, 28.90625%, 67.23938%)" offset=".563"/><stop stop-color="rgb(0%, 29.216003%, 67.30957%)" offset=".566"/><stop stop-color="rgb(0%, 29.525757%, 67.381287%)" offset=".57"/><stop stop-color="rgb(0%, 29.83551%, 67.451477%)" offset=".574"/><stop stop-color="rgb(0%, 30.14679%, 67.521667%)" offset=".578"/><stop stop-color="rgb(0%, 30.456543%, 67.591858%)" offset=".582"/><stop stop-color="rgb(0%, 30.766296%, 67.663574%)" offset=".586"/><stop stop-color="rgb(0%, 31.07605%, 67.733765%)" offset=".59"/><stop stop-color="rgb(0%, 31.387329%, 67.805481%)" offset=".594"/><stop stop-color="rgb(0%, 31.697083%, 67.875671%)" offset=".598"/><stop stop-color="rgb(0%, 32.006836%, 67.947388%)" offset=".602"/><stop stop-color="rgb(0%, 32.316589%, 68.017578%)" offset=".605"/><stop stop-color="rgb(0%, 32.627869%, 68.087769%)" offset=".609"/><stop stop-color="rgb(0%, 32.937622%, 68.157959%)" offset=".613"/><stop stop-color="rgb(0%, 33.247375%, 68.229675%)" offset=".617"/><stop stop-color="rgb(0%, 33.557129%, 68.299866%)" offset=".621"/><stop stop-color="rgb(0%, 33.868408%, 68.371582%)" offset=".625"/><stop stop-color="rgb(0%, 34.178162%, 68.441772%)" offset=".629"/><stop stop-color="rgb(0%, 34.487915%, 68.511963%)" offset=".633"/><stop stop-color="rgb(0%, 34.797668%, 68.582153%)" offset=".637"/><stop stop-color="rgb(0%, 35.108948%, 68.65387%)" offset=".641"/><stop stop-color="rgb(0%, 35.418701%, 68.72406%)" offset=".645"/><stop stop-color="rgb(0%, 35.728455%, 68.795776%)" offset=".648"/><stop stop-color="rgb(0%, 36.038208%, 68.865967%)" offset=".652"/><stop stop-color="rgb(0%, 36.347961%, 68.936157%)" offset=".656"/><stop stop-color="rgb(0%, 36.657715%, 69.006348%)" offset=".66"/><stop stop-color="rgb(0%, 36.968994%, 69.078064%)" offset=".664"/><stop stop-color="rgb(0%, 37.278748%, 69.148254%)" offset=".668"/><stop stop-color="rgb(0%, 37.588501%, 69.219971%)" offset=".672"/><stop stop-color="rgb(0%, 37.898254%, 69.290161%)" offset=".676"/><stop stop-color="rgb(0%, 38.209534%, 69.361877%)" offset=".68"/><stop stop-color="rgb(0%, 38.519287%, 69.432068%)" offset=".684"/><stop stop-color="rgb(0%, 38.829041%, 69.502258%)" offset=".688"/><stop stop-color="rgb(0%, 39.138794%, 69.572449%)" offset=".691"/><stop stop-color="rgb(0%, 39.450073%, 69.644165%)" offset=".695"/><stop stop-color="rgb(0%, 39.759827%, 69.714355%)" offset=".699"/><stop stop-color="rgb(0%, 40.06958%, 69.786072%)" offset=".703"/><stop stop-color="rgb(0%, 40.379333%, 69.856262%)" offset=".707"/><stop stop-color="rgb(0%, 40.690613%, 69.926453%)" offset=".711"/><stop stop-color="rgb(0%, 41.000366%, 69.996643%)" offset=".715"/><stop stop-color="rgb(0%, 41.31012%, 70.068359%)" offset=".719"/><stop stop-color="rgb(0%, 41.619873%, 70.13855%)" offset=".723"/><stop stop-color="rgb(0%, 41.931152%, 70.210266%)" offset=".727"/><stop stop-color="rgb(0%, 42.240906%, 70.280457%)" offset=".73"/><stop stop-color="rgb(0%, 42.550659%, 70.350647%)" offset=".734"/><stop stop-color="rgb(0%, 42.860413%, 70.420837%)" offset=".738"/><stop stop-color="rgb(0%, 43.171692%, 70.492554%)" offset=".742"/><stop stop-color="rgb(0%, 43.481445%, 70.562744%)" offset=".746"/><stop stop-color="rgb(0%, 43.791199%, 70.63446%)" offset=".75"/><stop stop-color="rgb(0%, 44.100952%, 70.704651%)" offset=".754"/><stop stop-color="rgb(0%, 44.410706%, 70.776367%)" offset=".758"/><stop stop-color="rgb(0%, 44.720459%, 70.846558%)" offset=".762"/><stop stop-color="rgb(0%, 45.031738%, 70.916748%)" offset=".766"/><stop stop-color="rgb(0%, 45.341492%, 70.986938%)" offset=".77"/><stop stop-color="rgb(0%, 45.651245%, 71.058655%)" offset=".773"/><stop stop-color="rgb(0%, 45.960999%, 71.128845%)" offset=".777"/><stop stop-color="rgb(0%, 46.272278%, 71.200562%)" offset=".781"/><stop stop-color="rgb(0%, 46.582031%, 71.270752%)" offset=".785"/><stop stop-color="rgb(0%, 46.891785%, 71.340942%)" offset=".789"/><stop stop-color="rgb(0%, 47.201538%, 71.411133%)" offset=".793"/><stop stop-color="rgb(0%, 47.512817%, 71.482849%)" offset=".797"/><stop stop-color="rgb(0%, 47.822571%, 71.55304%)" offset=".801"/><stop stop-color="rgb(0%, 48.132324%, 71.624756%)" offset=".805"/><stop stop-color="rgb(0%, 48.442078%, 71.694946%)" offset=".809"/><stop stop-color="rgb(0%, 48.753357%, 71.765137%)" offset=".813"/><stop stop-color="rgb(0%, 49.06311%, 71.835327%)" offset=".816"/><stop stop-color="rgb(0%, 49.372864%, 71.907043%)" offset=".82"/><stop stop-color="rgb(0%, 49.682617%, 71.977234%)" offset=".824"/><stop stop-color="rgb(0%, 49.993896%, 72.04895%)" offset=".828"/><stop stop-color="rgb(0%, 50.30365%, 72.119141%)" offset=".832"/><stop stop-color="rgb(0%, 50.613403%, 72.190857%)" offset=".836"/><stop stop-color="rgb(0%, 50.923157%, 72.261047%)" offset=".84"/><stop stop-color="rgb(0%, 51.234436%, 72.331238%)" offset=".844"/><stop stop-color="rgb(0%, 51.544189%, 72.401428%)" offset=".848"/><stop stop-color="rgb(0%, 51.853943%, 72.473145%)" offset=".852"/><stop stop-color="rgb(0%, 52.163696%, 72.543335%)" offset=".855"/><stop stop-color="rgb(0%, 52.47345%, 72.615051%)" offset=".859"/><stop stop-color="rgb(0%, 52.783203%, 72.685242%)" offset=".863"/><stop stop-color="rgb(0%, 53.094482%, 72.755432%)" offset=".867"/><stop stop-color="rgb(0%, 53.404236%, 72.825623%)" offset=".871"/><stop stop-color="rgb(0%, 53.713989%, 72.897339%)" offset=".875"/><stop stop-color="rgb(0%, 54.023743%, 72.967529%)" offset=".879"/><stop stop-color="rgb(0%, 54.335022%, 73.039246%)" offset=".883"/><stop stop-color="rgb(0%, 54.644775%, 73.109436%)" offset=".887"/><stop stop-color="rgb(0%, 54.954529%, 73.179626%)" offset=".891"/><stop stop-color="rgb(0%, 55.264282%, 73.249817%)" offset=".895"/><stop stop-color="rgb(0%, 55.575562%, 73.321533%)" offset=".898"/><stop stop-color="rgb(0%, 55.885315%, 73.391724%)" offset=".902"/><stop stop-color="rgb(0%, 56.195068%, 73.46344%)" offset=".906"/><stop stop-color="rgb(0%, 56.504822%, 73.53363%)" offset=".91"/><stop stop-color="rgb(0%, 56.816101%, 73.605347%)" offset=".914"/><stop stop-color="rgb(0%, 57.125854%, 73.675537%)" offset=".918"/><stop stop-color="rgb(0%, 57.435608%, 73.745728%)" offset=".922"/><stop stop-color="rgb(0%, 57.745361%, 73.815918%)" offset=".926"/><stop stop-color="rgb(0%, 58.056641%, 73.887634%)" offset=".93"/><stop stop-color="rgb(0%, 58.366394%, 73.957825%)" offset=".934"/><stop stop-color="rgb(0%, 58.676147%, 74.029541%)" offset=".938"/><stop stop-color="rgb(0%, 58.985901%, 74.099731%)" offset=".941"/><stop stop-color="rgb(0%, 59.295654%, 74.169922%)" offset=".945"/><stop stop-color="rgb(0%, 59.605408%, 74.240112%)" offset=".949"/><stop stop-color="rgb(0%, 59.916687%, 74.311829%)" offset=".953"/><stop stop-color="rgb(0%, 60.22644%, 74.382019%)" offset=".957"/><stop stop-color="rgb(0%, 60.536194%, 74.453735%)" offset=".961"/><stop stop-color="rgb(0%, 60.845947%, 74.523926%)" offset=".965"/><stop stop-color="rgb(0%, 61.157227%, 74.594116%)" offset=".969"/><stop stop-color="rgb(0%, 61.46698%, 74.664307%)" offset=".973"/><stop stop-color="rgb(0%, 61.776733%, 74.736023%)" offset=".977"/><stop stop-color="rgb(0%, 62.086487%, 74.806213%)" offset=".98"/><stop stop-color="rgb(0%, 62.397766%, 74.87793%)" offset=".984"/><stop stop-color="rgb(0%, 62.70752%, 74.94812%)" offset=".988"/><stop stop-color="rgb(0%, 63.017273%, 75.019836%)" offset=".992"/><stop stop-color="rgb(0%, 63.327026%, 75.090027%)" offset=".996"/><stop stop-color="rgb(0%, 63.638306%, 75.160217%)" offset="1"/></linearGradient><path id="D" d="M190.405 56.368c20.355 0 20.355-30.492 0-30.492s-20.355 30.492 0 30.492zm0-6.125c-11.832 0-11.832-18.285 0-18.285s11.832 18.285 0 18.285zm0 0"/></defs><g clip-path="url(#A)"><g clip-path="url(#B)"><path fill="url(#C)" d="M1.633.375v81.676h87.711V.375zm0 0"/></g></g><path d="M96.133 55.954h6.703l1.16-3.187h9.805L115 55.954h6.66l-12.453-30.656h-.621zm10.016-8.73l2.77-7.695 2.691 7.695zm40.868-1.571V26.372h-5.875V45.61c0 6.207-9.598 6.207-9.598 0V26.372h-5.918v19.281c0 14.066 21.391 14.066 21.391 0zm17.329 10.301V32.29h7.363v-5.875h-20.645v5.875h7.363v23.664zm0 0"/><use xlink:href="#D"/><path d="M211.205 55.954h11.711c4.797 0 8.727-3.93 8.727-8.895 0-2.316-1.113-4.594-3.059-5.918 1.859-1.281 2.648-3.598 2.73-5.832.125-5.215-3.145-8.977-8.398-8.977h-11.711zm5.957-23.707h5.258c1.695 0 2.73 1.324 2.73 2.98 0 1.613-1.035 2.977-2.73 2.977h-5.258zm0 11.875h5.258c1.695 0 2.977 1.281 2.977 2.938s-1.281 2.977-2.977 2.977h-5.258zm19.729-17.75v29.582H252.2v-5.918h-9.391V26.372zm0 0"/><use xlink:href="#D" x="81.111"/><path d="M313.663 54.134V41.142h-5.996v8.895c-.539.086-1.117.168-1.656.168-11.418 0-11.957-17.668 0-18.082 3.145-.082 5.047.582 6.207 1.078l.703-6c-.539-.164-3.395-1.199-6.91-1.074-20.52.742-19.527 29.992 0 29.992 2.813 0 5.379-.703 7.652-1.984zm0 0"/></svg>